<svg width="30" height="33" viewBox="0 0 30 33" fill="none" xmlns="http://www.w3.org/2000/svg">
<g filter="url(#filter0_d_6_65)">
<path d="M14 6.8C13.2056 6.8 12.5255 6.51604 11.9597 5.94813C11.394 5.38021 11.1111 4.6975 11.1111 3.9C11.1111 3.1025 11.394 2.41979 11.9597 1.85188C12.5255 1.28396 13.2056 1 14 1C14.7944 1 15.4745 1.28396 16.0403 1.85188C16.606 2.41979 16.8889 3.1025 16.8889 3.9C16.8889 4.6975 16.606 5.38021 16.0403 5.94813C15.4745 6.51604 14.7944 6.8 14 6.8ZM9.66667 30V11.15C8.22222 11.0292 6.7537 10.8479 5.26111 10.6063C3.76852 10.3646 2.34815 10.0625 1 9.7L1.72222 6.8C3.6 7.3075 5.59815 7.67604 7.71667 7.90563C9.83519 8.13521 11.9296 8.25 14 8.25C16.0704 8.25 18.1648 8.13521 20.2833 7.90563C22.4019 7.67604 24.4 7.3075 26.2778 6.8L27 9.7C25.6519 10.0625 24.2315 10.3646 22.7389 10.6063C21.2463 10.8479 19.7778 11.0292 18.3333 11.15V30H15.4444V21.3H12.5556V30H9.66667Z" fill="url(#paint0_linear_6_65)"/>
</g>
<defs>
<filter id="filter0_d_6_65" x="0" y="0" width="30" height="33" filterUnits="userSpaceOnUse" color-interpolation-filters="sRGB">
<feFlood flood-opacity="0" result="BackgroundImageFix"/>
<feColorMatrix in="SourceAlpha" type="matrix" values="0 0 0 0 0 0 0 0 0 0 0 0 0 0 0 0 0 0 127 0" result="hardAlpha"/>
<feOffset dx="1" dy="1"/>
<feGaussianBlur stdDeviation="1"/>
<feComposite in2="hardAlpha" operator="out"/>
<feColorMatrix type="matrix" values="0 0 0 0 0 0 0 0 0 0 0 0 0 0 0 0 0 0 0.25 0"/>
<feBlend mode="normal" in2="BackgroundImageFix" result="effect1_dropShadow_6_65"/>
<feBlend mode="normal" in="SourceGraphic" in2="effect1_dropShadow_6_65" result="shape"/>
</filter>
<linearGradient id="paint0_linear_6_65" x1="14" y1="1" x2="14" y2="30" gradientUnits="userSpaceOnUse">
<stop stop-color="#C55F51"/>
<stop offset="0.53" stop-color="#6E8B95"/>
</linearGradient>
</defs>
</svg>
