<svg width="39" height="39" viewBox="0 0 39 39" fill="none" xmlns="http://www.w3.org/2000/svg">
<mask id="mask0_214_237" style="mask-type:alpha" maskUnits="userSpaceOnUse" x="0" y="0" width="39" height="39">
<rect width="39" height="39" fill="#D9D9D9"/>
</mask>
<g mask="url(#mask0_214_237)">
<path d="M19.5 6.5V3.25H35.75V6.5H19.5ZM19.5 13V9.75H35.75V13H19.5ZM19.5 19.5V16.25H35.75V19.5H19.5ZM30.7938 35.75C27.4083 35.75 24.0635 35.012 20.7594 33.5359C17.4552 32.0599 14.449 29.9677 11.7406 27.2594C9.03229 24.551 6.9401 21.5448 5.46406 18.2406C3.98802 14.9365 3.25 11.5917 3.25 8.20625C3.25 7.71875 3.4125 7.3125 3.7375 6.9875C4.0625 6.6625 4.46875 6.5 4.95625 6.5H11.5375C11.9167 6.5 12.2552 6.62865 12.5531 6.88594C12.851 7.14323 13.0271 7.44792 13.0813 7.8L14.1375 13.4875C14.1917 13.9208 14.1781 14.2865 14.0969 14.5844C14.0156 14.8823 13.8667 15.1396 13.65 15.3563L9.70938 19.3375C10.251 20.3396 10.8943 21.3078 11.6391 22.2422C12.3839 23.1766 13.2031 24.0771 14.0969 24.9438C14.9365 25.7833 15.8167 26.562 16.7375 27.2797C17.6583 27.9974 18.6333 28.6542 19.6625 29.25L23.4812 25.4313C23.725 25.1875 24.0432 25.0047 24.4359 24.8828C24.8286 24.7609 25.2146 24.7271 25.5938 24.7812L31.2 25.9187C31.5792 26.0271 31.8906 26.2234 32.1344 26.5078C32.3781 26.7922 32.5 27.1104 32.5 27.4625V34.0438C32.5 34.5313 32.3375 34.9375 32.0125 35.2625C31.6875 35.5875 31.2813 35.75 30.7938 35.75ZM8.16563 16.25L10.8469 13.5687L10.1562 9.75H6.54063C6.67604 10.8604 6.86562 11.9573 7.10938 13.0406C7.35313 14.124 7.70521 15.1937 8.16563 16.25ZM22.7094 30.7938C23.7656 31.2542 24.8422 31.6198 25.9391 31.8906C27.0359 32.1615 28.1396 32.3375 29.25 32.4188V28.8438L25.4313 28.0719L22.7094 30.7938Z" fill="#999999"/>
</g>
</svg>
