<svg width="29" height="28" viewBox="0 0 29 28" fill="none" xmlns="http://www.w3.org/2000/svg">
<g filter="url(#filter0_d_6_60)">
<mask id="mask0_6_60" style="mask-type:alpha" maskUnits="userSpaceOnUse" x="0" y="0" width="27" height="27">
<rect width="27" height="27" fill="#D9D9D9"/>
</mask>
<g mask="url(#mask0_6_60)">
<path d="M15.1594 24.75C14.6344 24.75 14.1422 24.6375 13.6828 24.4125C13.2234 24.1875 12.8344 23.8688 12.5156 23.4563L6.38438 15.6656L6.91875 15.1031C7.29375 14.7094 7.74375 14.475 8.26875 14.4C8.79375 14.325 9.28125 14.4281 9.73125 14.7094L11.8125 15.975V4.50002C11.8125 4.18127 11.9203 3.91408 12.1359 3.69846C12.3516 3.48283 12.6187 3.37502 12.9375 3.37502C13.2563 3.37502 13.5281 3.48283 13.7531 3.69846C13.9781 3.91408 14.0906 4.18127 14.0906 4.50002V20.025L11.3625 18.3375L14.2875 22.0781C14.4 22.2281 14.5312 22.336 14.6813 22.4016C14.8313 22.4672 14.9906 22.5 15.1594 22.5H21.375C21.9937 22.5 22.5234 22.2797 22.9641 21.8391C23.4047 21.3985 23.625 20.8688 23.625 20.25V12.375C23.625 12.0563 23.7328 11.7891 23.9484 11.5735C24.1641 11.3578 24.4312 11.25 24.75 11.25C25.0688 11.25 25.3359 11.3578 25.5516 11.5735C25.7672 11.7891 25.875 12.0563 25.875 12.375V20.25C25.875 21.4875 25.4344 22.5469 24.5531 23.4281C23.6719 24.3094 22.6125 24.75 21.375 24.75H15.1594ZM15.75 14.625V9.00002C15.75 8.68127 15.8578 8.41408 16.0734 8.19846C16.2891 7.98283 16.5562 7.87502 16.875 7.87502C17.1938 7.87502 17.4609 7.98283 17.6766 8.19846C17.8922 8.41408 18 8.68127 18 9.00002V14.625H15.75ZM19.6875 14.625V10.125C19.6875 9.80627 19.7953 9.53908 20.0109 9.32346C20.2266 9.10783 20.4937 9.00002 20.8125 9.00002C21.1313 9.00002 21.3984 9.10783 21.6141 9.32346C21.8297 9.53908 21.9375 9.80627 21.9375 10.125V14.625H19.6875ZM5.0625 11.25C3.975 11.25 3.04688 10.875 2.27812 10.125C1.50937 9.37502 1.125 8.45627 1.125 7.36877C1.125 6.58127 1.35938 5.87346 1.82812 5.24533C2.29688 4.61721 2.78438 4.00314 3.29063 3.40314L5.0625 1.37814L6.83438 3.43127C7.34063 4.03127 7.82812 4.64064 8.29688 5.25939C8.76562 5.87814 9 6.58127 9 7.36877C9 8.45627 8.61562 9.37502 7.84687 10.125C7.07812 10.875 6.15 11.25 5.0625 11.25ZM5.0625 9.00002C5.53125 9.00002 5.92969 8.84064 6.25781 8.52189C6.58594 8.20314 6.75 7.81877 6.75 7.36877C6.75 6.86252 6.57656 6.42658 6.22969 6.06096C5.88281 5.69533 5.54063 5.32502 5.20312 4.95002L5.0625 4.80939L4.92188 4.95002C4.58437 5.32502 4.24219 5.69533 3.89531 6.06096C3.54844 6.42658 3.375 6.86252 3.375 7.36877C3.375 7.81877 3.53906 8.20314 3.86719 8.52189C4.19531 8.84064 4.59375 9.00002 5.0625 9.00002Z" fill="url(#paint0_linear_6_60)"/>
</g>
</g>
<defs>
<filter id="filter0_d_6_60" x="0.125" y="0.378143" width="28.75" height="27.3719" filterUnits="userSpaceOnUse" color-interpolation-filters="sRGB">
<feFlood flood-opacity="0" result="BackgroundImageFix"/>
<feColorMatrix in="SourceAlpha" type="matrix" values="0 0 0 0 0 0 0 0 0 0 0 0 0 0 0 0 0 0 127 0" result="hardAlpha"/>
<feOffset dx="1" dy="1"/>
<feGaussianBlur stdDeviation="1"/>
<feComposite in2="hardAlpha" operator="out"/>
<feColorMatrix type="matrix" values="0 0 0 0 0 0 0 0 0 0 0 0 0 0 0 0 0 0 0.3 0"/>
<feBlend mode="normal" in2="BackgroundImageFix" result="effect1_dropShadow_6_60"/>
<feBlend mode="normal" in="SourceGraphic" in2="effect1_dropShadow_6_60" result="shape"/>
</filter>
<linearGradient id="paint0_linear_6_60" x1="13.5" y1="1.37814" x2="13.5" y2="24.75" gradientUnits="userSpaceOnUse">
<stop stop-color="#C65D4F"/>
<stop offset="1" stop-color="#698C97"/>
</linearGradient>
</defs>
</svg>
